0
SECTION
2
HEADER
9
$INSUNITS
70
1
9
$ACADVER
1
AC1014
9
$HANDSEED
5
FFFF
0
ENDSEC
0
SECTION
2
TABLES
0
TABLE
2
VPORT
5
8
100
AcDbSymbolTable
0
ENDTAB
0
TABLE
2
LTYPE
5
5
100
AcDbSymbolTable
0
LTYPE
5
14
100
AcDbSymbolTableRecord
100
AcDbLinetypeTableRecord
2
BYBLOCK
70
0
0
LTYPE
5
15
100
AcDbSymbolTableRecord
100
AcDbLinetypeTableRecord
2
BYLAYER
70
0
0
ENDTAB
0
TABLE
2
LAYER
5
2
100
AcDbSymbolTable
70
2
0
LAYER
5
50
100
AcDbSymbolTableRecord
100
AcDbLayerTableRecord
2
0
70
0
6
CONTINUOUS
0
ENDTAB
0
TABLE
2
STYLE
5
3
100
AcDbSymbolTable
70
1
0
STYLE
5
11
100
AcDbSymbolTableRecord
100
AcDbTextStyleTableRecord
2
STANDARD
70
0
0
ENDTAB
0
TABLE
2
VIEW
5
6
100
AcDbSymbolTable
70
0
0
ENDTAB
0
TABLE
2
UCS
5
7
100
AcDbSymbolTable
70
0
0
ENDTAB
0
TABLE
2
APPID
5
9
100
AcDbSymbolTable
70
2
0
APPID
5
12
100
AcDbSymbolTableRecord
100
AcDbRegAppTableRecord
2
ACAD
70
0
0
ENDTAB
0
TABLE
2
DIMSTYLE
5
A
100
AcDbSymbolTable
70
1
0
ENDTAB
0
TABLE
2
BLOCK_RECORD
5
1
100
AcDbSymbolTable
70
1
0
BLOCK_RECORD
5
1F
100
AcDbSymbolTableRecord
100
AcDbBlockTableRecord
2
*MODEL_SPACE
0
BLOCK_RECORD
5
1B
100
AcDbSymbolTableRecord
100
AcDbBlockTableRecord
2
*PAPER_SPACE
0
ENDTAB
0
ENDSEC
0
SECTION
2
BLOCKS
0
BLOCK
5
20
100
AcDbEntity
100
AcDbBlockBegin
2
*MODEL_SPACE
0
ENDBLK
5
21
100
AcDbEntity
100
AcDbBlockEnd
0
BLOCK
5
1C
100
AcDbEntity
100
AcDbBlockBegin
2
*PAPER_SPACE
0
ENDBLK
5
1D
100
AcDbEntity
100
AcDbBlockEnd
0
ENDSEC
0
SECTION
2
ENTITIES
0
LINE
5
100
100
AcDbEntity
8
0
100
AcDbLine
10
-15.656402780681487
20
0.0049998077119644616
30
0
11
-18.656402780681486
21
0.0049998077119644763
31
0
0
LINE
5
101
100
AcDbEntity
8
0
100
AcDbLine
10
-22.090463051695426
20
27.973176309393828
30
0
11
-27.066094907186343
21
27.973176309393828
31
0
0
LINE
5
102
100
AcDbEntity
8
0
100
AcDbLine
10
-33.245568626195535
20
-1.6122845479690937e-05
30
0
11
-30.500771057030853
21
-1.6122845480207536e-05
31
0
0
ARC
5
103
100
AcDbEntity
8
0
100
AcDbCircle
10
-24.584726408847384
20
14.101878993404886
30
0
40
3.6419338910506651
100
AcDbArc
50
-36.678252772950579
51
39.103111458687259
0
ARC
5
104
100
AcDbEntity
8
0
100
AcDbCircle
10
-24.584726408847384
20
14.101878993404886
30
0
40
3.6419338910504768
100
AcDbArc
50
214.99523616378937
51
311.07915404332948
0
SPLINE
5
105
100
AcDbEntity
8
0
100
AcDbSpline
70
1064
71
3
72
8
73
4
74
0
42
0.000000001
43
0.0000000001
44
0.0000000001
40
0
40
0
40
0
40
0
40
1
40
1
40
1
40
1
10
-21.663583733453986
20
11.926514626813594
30
0
10
-21.191629594192783
20
12.558059543773531
30
0
10
-20.942792518052318
20
13.307765195441354
30
0
10
-20.942792518052318
20
14.101922125691557
30
0
0
SPLINE
5
106
100
AcDbEntity
8
0
100
AcDbSpline
70
1064
71
3
72
8
73
4
74
0
42
0.000000001
43
0.0000000001
44
0.0000000001
40
0.15619434716666436
40
0.15619434716666436
40
0.15619434716666436
40
0.15619434716666436
40
1
40
1
40
1
40
1
10
-21.758541434566443
20
16.398912070697094
30
0
10
-22.494606958009829
20
14.91625377449877
30
0
10
-23.204447215786196
20
12.926291573951454
30
0
10
-22.706577739844668
20
12.207891226825147
30
0
0
SPLINE
5
107
100
AcDbEntity
8
0
100
AcDbSpline
70
1064
71
3
72
8
73
4
74
0
42
0.000000001
43
0.0000000001
44
0.0000000001
40
0
40
0
40
0
40
0
40
0.049245246541145912
40
0.049245246541145912
40
0.049245246541145912
40
0.049245246541145912
10
-21.35458666577642
20
17.15883305712337
30
0
10
-21.395748096640791
20
17.08682184235423
30
0
10
-21.437565098761603
20
17.011961226713577
30
0
10
-21.479802820457717
20
16.934604807413276
30
0
0
SPLINE
5
108
100
AcDbEntity
8
0
100
AcDbSpline
70
1064
71
3
72
8
73
4
74
0
42
0.000000001
43
0.0000000001
44
0.0000000001
40
0
40
0
40
0
40
0
40
1
40
1
40
1
40
1
10
-22.706577739844668
20
12.207891226825147
30
0
10
-22.531623965992775
20
11.955428404571549
30
0
10
-22.181023667669493
20
11.860831068549841
30
0
10
-21.663583733453986
20
11.926514626813594
30
0
0
SPLINE
5
109
100
AcDbEntity
8
0
100
AcDbSpline
70
1064
71
3
72
8
73
4
74
0
42
0.000000001
43
0.0000000001
44
0.0000000001
40
0.33132385655610308
40
0.33132385655610308
40
0.33132385655610308
40
0.33132385655610308
40
1
40
1
40
1
40
1
10
-22.191607887340169
20
11.356580064547074
30
0
10
-22.626592807601916
20
11.401310831988861
30
0
10
-22.95355855778741
20
11.579100355841593
30
0
10
-23.167911458961932
20
11.888451536215863
30
0
0
ARC
5
110
100
AcDbEntity
8
0
100
AcDbCircle
10
-24.584726408847384
20
14.101878993404886
30
0
40
3.6419338910504768
100
AcDbArc
50
49.786189894495571
51
205.16349661325543
0
SPLINE
5
111
100
AcDbEntity
8
0
100
AcDbSpline
70
1064
71
3
72
8
73
4
74
0
42
0.000000001
43
0.0000000001
44
0.0000000001
40
0
40
0
40
0
40
0
40
1
40
1
40
1
40
1
10
-23.167911458961932
20
11.888451536215863
30
0
10
-23.613109093306921
20
12.531044903645483
30
0
10
-23.432630435711999
20
13.643001839103279
30
0
10
-23.079442200188463
20
14.706624273161935
30
0
0
LINE
5
112
100
AcDbEntity
8
0
100
AcDbLine
10
-27.88103398006136
20
12.553318738607075
30
0
11
-24.661550947833604
21
17.340722593481434
31
0
0
SPLINE
5
113
100
AcDbEntity
8
0
100
AcDbSpline
70
1064
71
3
72
8
73
4
74
0
42
0.000000001
43
0.0000000001
44
0.0000000001
40
0
40
0
40
0
40
0
40
1
40
1
40
1
40
1
10
-25.605534944946669
20
11.118376250600081
30
0
10
-25.659479936154
20
11.041644241866644
30
0
10
-25.746050715805762
20
10.999179682503899
30
0
10
-25.83503822052748
20
10.999179682503899
30
0
0
SPLINE
5
114
100
AcDbEntity
8
0
100
AcDbSpline
70
1064
71
3
72
8
73
4
74
0
42
0.000000001
43
0.0000000001
44
0.0000000001
40
0
40
0
40
0
40
0
40
1
40
1
40
1
40
1
10
-28.332908621130851
20
11.378779364650285
30
0
10
-28.461513295786848
20
11.465178273663552
30
0
10
-28.495606898994467
20
11.639527536993857
30
0
10
-28.409122383916049
20
11.768045947076503
30
0
0
SPLINE
5
115
100
AcDbEntity
8
0
100
AcDbSpline
70
1064
71
3
72
8
73
4
74
0
42
0.000000001
43
0.0000000001
44
0.0000000001
40
0
40
0
40
0
40
0
40
1
40
1
40
1
40
1
10
-21.82749037385258
20
17.459457851629431
30
0
10
-21.74126531100239
20
17.582020713610532
30
0
10
-21.574077982784033
20
17.615164748003195
30
0
10
-21.447631239477985
20
17.534722045599679
30
0
0
SPLINE
5
116
100
AcDbEntity
8
0
100
AcDbSpline
70
1064
71
3
72
8
73
4
74
0
42
0.000000001
43
0.0000000001
44
0.0000000001
40
0
40
0
40
0
40
0
40
1
40
1
40
1
40
1
10
-25.83503822052748
20
10.999179682503899
30
0
10
-25.873792086220138
20
10.999179682503899
30
0
10
-25.912977933287703
20
11.007292503447188
30
0
10
-25.95017837815201
20
11.024037049790206
30
0
0
SPLINE
5
117
100
AcDbEntity
8
0
100
AcDbSpline
70
1064
71
3
72
8
73
4
74
0
42
0.000000001
43
0.0000000001
44
0.0000000001
40
0
40
0
40
0
40
0
40
1
40
1
40
1
40
1
10
-21.447631239477985
20
17.534722045599679
30
0
10
-21.321270102237069
20
17.454365607769489
30
0
10
-21.280272699129323
20
17.288819281969214
30
0
10
-21.35458666577642
20
17.15883305712337
30
0
0
SPLINE
5
118
100
AcDbEntity
8
0
100
AcDbSpline
70
1064
71
3
72
8
73
4
74
0
42
0.000000001
43
0.0000000001
44
0.0000000001
40
0
40
0
40
0
40
0
40
1
40
1
40
1
40
1
10
-25.95017837815201
20
11.024037049790206
30
0
10
-26.072741240133123
20
11.079449197252542
30
0
10
-26.138942385836916
20
11.21392315543674
30
0
10
-26.107783753647499
20
11.344772684524196
30
0
0
SPLINE
5
119
100
AcDbEntity
8
0
100
AcDbSpline
70
1064
71
3
72
8
73
4
74
0
42
0.000000001
43
0.0000000001
44
0.0000000001
40
0
40
0
40
0
40
0
40
1
40
1
40
1
40
1
10
-24.66162864194883
20
17.34060700033481
30
0
10
-24.586019389685219
20
17.453157903742706
30
0
10
-24.440670168686225
20
17.495364327893622
30
0
10
-24.316294433648565
20
17.441074278392918
30
0
0
SPLINE
5
120
100
AcDbEntity
8
0
100
AcDbSpline
70
1064
71
3
72
8
73
4
74
0
42
0.000000001
43
0.0000000001
44
0.0000000001
40
0
40
0
40
0
40
0
40
1
40
1
40
1
40
1
10
-24.316294433648565
20
17.441074278392918
30
0
10
-24.192091886265771
20
17.386611699745533
30
0
10
-24.124509190372112
20
17.251101908173037
30
0
10
-24.156013539363094
20
17.119130281123947
30
0
0
LINE
5
121
100
AcDbEntity
8
0
100
AcDbLine
10
-25.223693042401592
20
12.635222216865484
30
0
11
-22.225526324320729
21
16.894108777630372
31
0
0
LINE
5
122
100
AcDbEntity
8
0
100
AcDbLine
10
-21.909831555377824
20
17.342504820948328
30
0
11
-21.82749037385258
21
17.459457851629431
31
0
0
LINE
5
123
100
AcDbEntity
8
0
100
AcDbLine
10
-24.155975698745639
20
17.119288997163927
30
0
11
-25.223693042401592
21
12.635222216865484
31
0
0
LINE
5
124
100
AcDbEntity
8
0
100
AcDbLine
10
-23.079442200188463
20
14.706624273161935
30
0
11
-25.60563997127484
21
11.118226961721687
31
0
0
LINE
5
125
100
AcDbEntity
8
0
100
AcDbLine
10
-25.060733336785173
20
15.741936781476024
30
0
11
-27.568197673649237
21
12.0131995831354
31
0
0
LINE
5
126
100
AcDbEntity
8
0
100
AcDbLine
10
-28.409122383916049
20
11.768045947076503
30
0
11
-28.237606507298302
21
12.023091788341542
31
0
0
LINE
5
127
100
AcDbEntity
8
0
100
AcDbLine
10
-26.107784139404835
20
11.344771064529331
30
0
11
-25.060733336785173
21
15.741936781476024
31
0
0
LINE
5
128
100
AcDbEntity
8
0
100
AcDbLine
10
-27.899622082988959
20
11.520589104109503
30
0
11
-27.943641380196432
21
11.454992468927287
31
0
0
SPLINE
5
129
100
AcDbEntity
8
0
100
AcDbSpline
70
1064
71
3
72
8
73
4
74
0
42
0.000000001
43
0.0000000001
44
0.0000000001
40
0
40
0
40
0
40
0
40
1
40
1
40
1
40
1
10
-27.943641380196432
20
11.454992468927287
30
0
10
-28.03012589527486
20
11.326387135763104
30
0
10
-28.204390211048214
20
11.292294849571865
30
0
10
-28.332908621130851
20
11.378779364650285
30
0
0
LINE
5
130
100
AcDbEntity
8
0
100
AcDbLine
10
-30.500771057030853
20
-1.6122845480207536e-05
30
0
11
-28.785588067747028
21
13.969028329252852
31
0
0
LINE
5
131
100
AcDbEntity
8
0
100
AcDbLine
10
-28.62866511830488
20
15.247063192009433
30
0
11
-27.066094907186343
21
27.973176309393828
31
0
0
LINE
5
132
100
AcDbEntity
8
0
100
AcDbLine
10
-18.656402780681486
20
0.0049998077119644763
30
0
11
-20.38198593049205
21
14.058746770044801
31
0
0
LINE
5
133
100
AcDbEntity
8
0
100
AcDbLine
10
-20.517259833634991
20
15.160464299905197
30
0
11
-22.090463051695426
21
27.973176309393828
31
0
0
ARC
5
134
100
AcDbEntity
8
0
100
AcDbCircle
10
-24.584726408847384
20
14.10187866415079
30
0
40
4.2029617995760518
100
AcDbArc
50
50.463888951775282
51
164.18865078218226
0
ARC
5
135
100
AcDbEntity
8
0
100
AcDbCircle
10
-24.584726408847384
20
14.10187866415079
30
0
40
4.2029617995760526
100
AcDbArc
50
181.81134921781955
51
209.64340824017151
0
ARC
5
136
100
AcDbEntity
8
0
100
AcDbCircle
10
-24.584726408847384
20
14.10187866415079
30
0
40
4.2029617995760544
100
AcDbArc
50
217.91478392441238
51
359.41200539256812
0
ARC
5
137
100
AcDbEntity
8
0
100
AcDbCircle
10
-24.584726408847384
20
14.10187866415079
30
0
40
4.2029617995760562
100
AcDbArc
50
14.587994607431671
51
42.375248762350338
0
LINE
5
138
100
AcDbEntity
8
0
100
AcDbLine
10
-28.450962804911242
20
31.406326656545982
30
0
11
-28.450962804911242
21
30.906326656545982
31
0
0
LINE
5
139
100
AcDbEntity
8
0
100
AcDbLine
10
-20.450962804911239
20
30.906326656545982
30
0
11
-20.450962804911239
21
31.406326656545982
31
0
0
LINE
5
140
100
AcDbEntity
8
0
100
AcDbLine
10
-29.450677764022977
20
30.906889715042947
30
0
11
-28.450962804911242
21
30.906889715042947
31
0
0
LINE
5
141
100
AcDbEntity
8
0
100
AcDbLine
10
-20.450962804911239
20
30.906889715042947
30
0
11
-19.450677764022984
21
30.906889715042947
31
0
0
LINE
5
142
100
AcDbEntity
8
0
100
AcDbLine
10
-18.497711908435864
20
14.97512450169522
30
0
11
-18.481058850467484
21
23.009977379930596
31
0
0
LINE
5
143
100
AcDbEntity
8
0
100
AcDbLine
10
-30.497698544197725
20
14.985167017658405
30
0
11
-30.497698544197725
21
22.37958976401158
31
0
0
LINE
5
144
100
AcDbEntity
8
0
100
AcDbLine
10
-30.497698544197725
20
14.985167017658405
30
0
11
-31.405619494239151
21
14.985167017658405
31
0
0
LINE
5
145
100
AcDbEntity
8
0
100
AcDbLine
10
-18.497711908435864
20
14.97512450169522
30
0
11
-17.494502967893911
21
14.97512450169522
31
0
0
CIRCLE
5
146
100
AcDbEntity
8
0
100
AcDbCircle
10
5.1341466268171372
20
9.4648352574930605
30
0
40
5.9999999098890404
0
CIRCLE
5
147
100
AcDbEntity
8
0
100
AcDbCircle
10
5.1341466268171372
20
9.4648352574930605
30
0
40
8.9999998648335602
0
LINE
5
148
100
AcDbEntity
8
0
100
AcDbLine
10
-33.245568626195535
20
-1.6122845479690937e-05
30
0
11
-31.405619494239151
21
14.985167017658405
31
0
0
LINE
5
149
100
AcDbEntity
8
0
100
AcDbLine
10
-30.497698544197725
20
22.37958976401158
30
0
11
-29.450677764022977
21
30.906889715042947
31
0
0
LINE
5
150
100
AcDbEntity
8
0
100
AcDbLine
10
-19.450677764022984
20
30.906889715042947
30
0
11
-18.481058850467484
21
23.009977379930596
31
0
0
LINE
5
151
100
AcDbEntity
8
0
100
AcDbLine
10
-17.494502967893911
20
14.97512450169522
30
0
11
-15.656402780681487
21
0.0049998077119644616
31
0
0
CIRCLE
5
152
100
AcDbEntity
8
0
100
AcDbCircle
10
5.1341466268171372
20
9.4648352574930605
30
0
40
5.7500000000000009
0
LINE
5
153
100
AcDbEntity
8
0
100
AcDbLine
10
-15.707352124834776
20
31.541478485570643
30
0
11
-13.981768975024213
21
17.487731523237844
31
0
0
LINE
5
154
100
AcDbEntity
8
0
100
AcDbLine
10
-13.846495071881275
20
16.38601399337745
30
0
11
-12.273291853820842
21
3.573301983888856
31
0
0
LINE
5
155
100
AcDbEntity
8
0
100
AcDbLine
10
-3.8660563613185652
20
9.1668885292710893
30
0
11
-4.9130771414933081
21
0.63958857823974236
31
0
0
LINE
5
156
100
AcDbEntity
8
0
100
AcDbLine
10
-14.913077141493281
20
0.63958857823974236
30
0
11
-15.882696055048774
21
8.5365009133520697
31
0
0
LINE
5
157
100
AcDbEntity
8
0
100
AcDbLine
10
-5.7350897872114084
20
16.299415101273215
30
0
11
-7.2976599983299399
21
3.573301983888856
31
0
0
LINE
5
158
100
AcDbEntity
8
0
100
AcDbLine
10
-16.869251937622348
20
16.571353791587427
30
0
11
-18.707352124834767
21
31.541478485570643
31
0
0
LINE
5
159
100
AcDbEntity
8
0
100
AcDbLine
10
-1.1181862793207691
20
31.546494416128091
30
0
11
-2.9581354112771447
21
16.561311275624242
31
0
0
LINE
5
160
100
AcDbEntity
8
0
100
AcDbLine
10
-3.8629838484854395
20
31.546494416128091
30
0
11
-5.5781668377692544
21
17.577449964029793
31
0
0
LINE
5
161
100
AcDbEntity
8
0
100
AcDbLine
10
-3.866056361318567
20
16.561311275624242
30
0
11
-3.8660563613185652
21
9.1668885292710893
31
0
0
LINE
5
162
100
AcDbEntity
8
0
100
AcDbLine
10
-4.9130771414933081
20
0.63958857823974236
30
0
11
-5.9127921006050466
21
0.63958857823974236
31
0
0
LINE
5
163
100
AcDbEntity
8
0
100
AcDbLine
10
-5.954632521600236
20
19.778432346206138
30
0
11
-6.1261483982179836
21
19.523386504941101
31
0
0
LINE
5
164
100
AcDbEntity
8
0
100
AcDbLine
10
-9.303021568731106
20
15.804541511806626
30
0
11
-6.7955572318670425
21
19.533278710147243
31
0
0
SPLINE
5
165
100
AcDbEntity
8
0
100
AcDbSpline
70
1064
71
3
72
8
73
4
74
0
42
0.000000001
43
0.0000000001
44
0.0000000001
40
0
40
0
40
0
40
0
40
1
40
1
40
1
40
1
10
-8.7582199605696065
20
20.428102042682557
30
0
10
-8.7042749693622756
20
20.504834051415997
30
0
10
-8.6177041897105173
20
20.547298610778739
30
0
10
-8.5287166849887992
20
20.547298610778739
30
0
0
LINE
5
166
100
AcDbEntity
8
0
100
AcDbLine
10
-18.707352124834767
20
31.541478485570643
30
0
11
-15.707352124834776
21
31.541478485570643
31
0
0
LINE
5
167
100
AcDbEntity
8
0
100
AcDbLine
10
-15.866042997080399
20
16.571353791587427
30
0
11
-15.882696055048774
21
8.5365009133520697
31
0
0
SPLINE
5
168
100
AcDbEntity
8
0
100
AcDbSpline
70
1064
71
3
72
8
73
4
74
0
42
0.000000001
43
0.0000000001
44
0.0000000001
40
0
40
0
40
0
40
0
40
1
40
1
40
1
40
1
10
-11.657177165671603
20
19.338587066457492
30
0
10
-11.832130939523498
20
19.591049888711087
30
0
10
-12.182731237846779
20
19.685647224732801
30
0
10
-12.700171172062284
20
19.619963666469044
30
0
0
LINE
5
169
100
AcDbEntity
8
0
100
AcDbLine
10
-13.91279210060503
20
0.63958857823974236
30
0
11
-14.913077141493281
21
0.63958857823974236
31
0
0
LINE
5
170
100
AcDbEntity
8
0
100
AcDbLine
10
-6.4641328225273238
20
20.025889189173135
30
0
11
-6.4201135253198514
21
20.091485824355356
31
0
0
SPLINE
5
171
100
AcDbEntity
8
0
100
AcDbSpline
70
1064
71
3
72
8
73
4
74
0
42
0.000000001
43
0.0000000001
44
0.0000000001
40
0
40
0
40
0
40
0
40
1
40
1
40
1
40
1
10
-12.916123666038283
20
14.011756247682978
30
0
10
-13.0424848032792
20
14.092112685513165
30
0
10
-13.083482206386943
20
14.257659011313441
30
0
10
-13.009168239739846
20
14.387645236159281
30
0
0
LINE
5
172
100
AcDbEntity
8
0
100
AcDbLine
10
-15.866042997080399
20
16.571353791587427
30
0
11
-16.869251937622348
21
16.571353791587427
31
0
0
ARC
5
173
100
AcDbEntity
8
0
100
AcDbCircle
10
-9.7790284966688912
20
17.444599629131854
30
0
40
4.2029617995760438
100
AcDbArc
50
1.8113492178195576
51
29.643408240171574
0
LINE
5
174
100
AcDbEntity
8
0
100
AcDbLine
10
-3.866056361318567
20
16.561311275624242
30
0
11
-2.9581354112771447
21
16.561311275624242
31
0
0
ARC
5
175
100
AcDbEntity
8
0
100
AcDbCircle
10
-9.7790284966688912
20
17.444599299877758
30
0
40
3.6419338910506567
100
AcDbArc
50
143.32174722704946
51
219.10311145868721
0
SPLINE
5
176
100
AcDbEntity
8
0
100
AcDbSpline
70
1064
71
3
72
8
73
4
74
0
42
0.000000001
43
0.0000000001
44
0.0000000001
40
0
40
0
40
0
40
0
40
0.049245246541145912
40
0.049245246541145912
40
0.049245246541145912
40
0.049245246541145912
10
-13.009168239739846
20
14.387645236159281
30
0
10
-12.968006808875476
20
14.459656450928424
30
0
10
-12.926189806754666
20
14.534517066569075
30
0
10
-12.883952085058555
20
14.611873485869376
30
0
0
SPLINE
5
177
100
AcDbEntity
8
0
100
AcDbSpline
70
1064
71
3
72
8
73
4
74
0
42
0.000000001
43
0.0000000001
44
0.0000000001
40
0
40
0
40
0
40
0
40
1
40
1
40
1
40
1
10
-12.700171172062284
20
19.619963666469044
30
0
10
-13.172125311323484
20
18.988418749509105
30
0
10
-13.420962387463952
20
18.238713097841291
30
0
10
-13.420962387463952
20
17.444556167591088
30
0
0
SPLINE
5
178
100
AcDbEntity
8
0
100
AcDbSpline
70
1064
71
3
72
8
73
4
74
0
42
0.000000001
43
0.0000000001
44
0.0000000001
40
0
40
0
40
0
40
0
40
1
40
1
40
1
40
1
10
-8.5287166849887992
20
20.547298610778739
30
0
10
-8.4899628192961387
20
20.547298610778739
30
0
10
-8.4507769722285779
20
20.53918578983545
30
0
10
-8.4135765273642669
20
20.522441243492434
30
0
0
SPLINE
5
179
100
AcDbEntity
8
0
100
AcDbSpline
70
1064
71
3
72
8
73
4
74
0
42
0.000000001
43
0.0000000001
44
0.0000000001
40
0
40
0
40
0
40
0
40
1
40
1
40
1
40
1
10
-6.4201135253198514
20
20.091485824355356
30
0
10
-6.3336290102414257
20
20.220091157519533
30
0
10
-6.1593646944680716
20
20.254183443710772
30
0
10
-6.0308462843854347
20
20.167698928632355
30
0
0
LINE
5
180
100
AcDbEntity
8
0
100
AcDbLine
10
-1.1181862793207691
20
31.546494416128091
30
0
11
-3.8629838484854395
21
31.546494416128091
31
0
0
SPLINE
5
181
100
AcDbEntity
8
0
100
AcDbSpline
70
1064
71
3
72
8
73
4
74
0
42
0.000000001
43
0.0000000001
44
0.0000000001
40
0
40
0
40
0
40
0
40
1
40
1
40
1
40
1
10
-11.195843446554342
20
19.658026757066775
30
0
10
-10.750645812209354
20
19.01543338963716
30
0
10
-10.931124469804276
20
17.903476454179366
30
0
10
-11.28431270532781
20
16.839854020120711
30
0
0
SPLINE
5
182
100
AcDbEntity
8
0
100
AcDbSpline
70
1064
71
3
72
8
73
4
74
0
42
0.000000001
43
0.0000000001
44
0.0000000001
40
0.15619434716666436
40
0.15619434716666436
40
0.15619434716666436
40
0.15619434716666436
40
1
40
1
40
1
40
1
10
-12.605213470949828
20
15.147566222585558
30
0
10
-11.869147947506443
20
16.630224518783876
30
0
10
-11.159307689730076
20
18.620186719331187
30
0
10
-11.657177165671603
20
19.338587066457492
30
0
0
SPLINE
5
183
100
AcDbEntity
8
0
100
AcDbSpline
70
1064
71
3
72
8
73
4
74
0
42
0.000000001
43
0.0000000001
44
0.0000000001
40
0
40
0
40
0
40
0
40
1
40
1
40
1
40
1
10
-6.0308462843854347
20
20.167698928632355
30
0
10
-5.9022416097294359
20
20.081300019619089
30
0
10
-5.8681480065218157
20
19.906950756288786
30
0
10
-5.954632521600236
20
19.778432346206138
30
0
0
SPLINE
5
184
100
AcDbEntity
8
0
100
AcDbSpline
70
1064
71
3
72
8
73
4
74
0
42
0.000000001
43
0.0000000001
44
0.0000000001
40
0
40
0
40
0
40
0
40
1
40
1
40
1
40
1
10
-12.53626453166369
20
14.087020441653223
30
0
10
-12.622489594513882
20
13.964457579672125
30
0
10
-12.789676922732236
20
13.93131354527946
30
0
10
-12.916123666038283
20
14.011756247682978
30
0
0
ARC
5
185
100
AcDbEntity
8
0
100
AcDbCircle
10
-9.7790284966688912
20
17.444599629131854
30
0
40
4.2029617995760464
100
AcDbArc
50
194.58799460743168
51
222.37524876235025
0
LINE
5
186
100
AcDbEntity
8
0
100
AcDbLine
10
-8.2559707661114423
20
20.201707228753307
30
0
11
-9.303021568731106
21
15.804541511806626
31
0
0
SPLINE
5
187
100
AcDbEntity
8
0
100
AcDbSpline
70
1064
71
3
72
8
73
4
74
0
42
0.000000001
43
0.0000000001
44
0.0000000001
40
0.33132385655610308
40
0.33132385655610308
40
0.33132385655610308
40
0.33132385655610308
40
1
40
1
40
1
40
1
10
-12.172147018176103
20
20.189898228735565
30
0
10
-11.737162097914357
20
20.145167461293777
30
0
10
-11.410196347728863
20
19.967377937441046
30
0
10
-11.195843446554342
20
19.658026757066775
30
0
0
SPLINE
5
188
100
AcDbEntity
8
0
100
AcDbSpline
70
1064
71
3
72
8
73
4
74
0
42
0.000000001
43
0.0000000001
44
0.0000000001
40
0
40
0
40
0
40
0
40
1
40
1
40
1
40
1
10
-8.4135765273642669
20
20.522441243492434
30
0
10
-8.2910136653831561
20
20.467029096030096
30
0
10
-8.2248125196793644
20
20.332555137845898
30
0
10
-8.2559711518687813
20
20.201705608758445
30
0
0
LINE
5
189
100
AcDbEntity
8
0
100
AcDbLine
10
-5.912792100605043
20
0.14015163673671355
30
0
11
-5.9127921006050466
21
0.64015163673670639
31
0
0
LINE
5
190
100
AcDbEntity
8
0
100
AcDbLine
10
-13.912792100605024
20
0.14015163673671355
30
0
11
-5.912792100605043
21
0.14015163673671355
31
0
0
LINE
5
191
100
AcDbEntity
8
0
100
AcDbLine
10
-13.91279210060503
20
0.64015163673670639
30
0
11
-13.912792100605024
21
0.14015163673671355
31
0
0
LINE
5
192
100
AcDbEntity
8
0
100
AcDbLine
10
-6.4827209254549221
20
18.993159554675572
30
0
11
-9.4104759260753905
21
14.639558235522374
31
0
0
LINE
5
193
100
AcDbEntity
8
0
100
AcDbLine
10
-24.075962804911239
20
29.689826656545982
30
0
11
-24.825962804911239
21
29.689826656545982
31
0
0
LINE
5
194
100
AcDbEntity
8
0
100
AcDbLine
10
-24.825962804911239
20
29.689826656545982
30
0
11
-24.825962804911239
21
31.406326656545982
31
0
0
LINE
5
195
100
AcDbEntity
8
0
100
AcDbLine
10
-24.075962804911239
20
31.406326656545982
30
0
11
-24.075962804911239
21
29.689826656545982
31
0
0
LINE
5
196
100
AcDbEntity
8
0
100
AcDbLine
10
-20.450962804911239
20
31.406326656545982
30
0
11
-24.075962804911239
21
31.406326656545982
31
0
0
LINE
5
197
100
AcDbEntity
8
0
100
AcDbLine
10
-24.825962804911239
20
31.406326656545982
30
0
11
-28.450962804911242
21
31.406326656545982
31
0
0
LINE
5
198
100
AcDbEntity
8
0
100
AcDbLine
10
-9.4104759260753905
20
1.8568019838888563
30
0
11
-10.160475926075391
21
1.8568019838888563
31
0
0
LINE
5
199
100
AcDbEntity
8
0
100
AcDbLine
10
-10.160475926075391
20
1.8568019838888563
30
0
11
-10.160475926075391
21
3.573301983888856
31
0
0
LINE
5
200
100
AcDbEntity
8
0
100
AcDbLine
10
-12.273291853820842
20
3.573301983888856
30
0
11
-10.160475926075391
21
3.573301983888856
31
0
0
LINE
5
201
100
AcDbEntity
8
0
100
AcDbLine
10
-9.4104759260753905
20
3.573301983888856
30
0
11
-7.2976599983299399
21
3.573301983888856
31
0
0
ARC
5
202
100
AcDbEntity
8
0
100
AcDbCircle
10
-9.7790284966688912
20
17.444599629131854
30
0
40
4.2029617995760429
100
AcDbArc
50
37.914783924412355
51
84.969342136243597
0
ARC
5
203
100
AcDbEntity
8
0
100
AcDbCircle
10
-9.7790284966688912
20
17.444599629131854
30
0
40
4.202961799576042
100
AcDbArc
50
95.207147626717642
51
179.41200539256874
0
ARC
5
204
100
AcDbEntity
8
0
100
AcDbCircle
10
-9.7790284966688912
20
17.444599299877758
30
0
40
3.6419338910504693
100
AcDbArc
50
34.995236163789421
51
84.191900156004266
0
ARC
5
205
100
AcDbEntity
8
0
100
AcDbCircle
10
-9.7790284966688912
20
17.444599299877758
30
0
40
3.6419338910504679
100
AcDbArc
50
96.012049015347955
51
131.07915404332954
0
LINE
5
206
100
AcDbEntity
8
0
100
AcDbLine
10
-11.28431270532781
20
16.839854020120711
30
0
11
-10.160475926075391
21
18.436234526557772
31
0
0
LINE
5
207
100
AcDbEntity
8
0
100
AcDbLine
10
-9.4104759260753905
20
19.501589747112341
30
0
11
-8.7581149342414371
21
20.428251331560951
31
0
0
LINE
5
208
100
AcDbEntity
8
0
100
AcDbLine
10
-9.1400618631146866
20
18.911256076417157
30
0
11
-9.4104759260753905
21
18.527133735374576
31
0
0
LINE
5
209
100
AcDbEntity
8
0
100
AcDbLine
10
-10.160475926075391
20
17.461761052357716
30
0
11
-12.130413133437003
21
14.663471335048937
31
0
0
LINE
5
210
100
AcDbEntity
8
0
100
AcDbLine
10
-9.4104759260753905
20
17.775604657198155
30
0
11
-9.1400618631146866
21
18.911256076417157
31
0
0
ARC
5
211
100
AcDbEntity
8
0
100
AcDbCircle
10
-9.7790284966688912
20
17.444599299877758
30
0
40
3.6419338910504693
100
AcDbArc
50
229.78618989449558
51
263.98795098465206
0
ARC
5
212
100
AcDbEntity
8
0
100
AcDbCircle
10
-9.7790284966688912
20
17.444599299877758
30
0
40
3.6419338910504702
100
AcDbArc
50
-84.191900156004252
51
25.163496613255504
0
ARC
5
213
100
AcDbEntity
8
0
100
AcDbCircle
10
-9.7790284966688912
20
17.444599629131854
30
0
40
4.202961799576042
100
AcDbArc
50
230.46388895177526
51
264.79285237328236
0
ARC
5
214
100
AcDbEntity
8
0
100
AcDbCircle
10
-9.7790284966688912
20
17.444599629131854
30
0
40
4.2029617995760429
100
AcDbArc
50
275.0306578637564
51
344.18865078218232
0
LINE
5
215
100
AcDbEntity
8
0
100
AcDbLine
10
-10.160475926075391
20
21.066502159616157
30
0
11
-10.160475926075391
21
21.630216160456083
31
0
0
LINE
5
216
100
AcDbEntity
8
0
100
AcDbLine
10
-10.160475926075391
20
17.461761052357716
30
0
11
-10.160475926075391
21
18.436234526557772
31
0
0
LINE
5
217
100
AcDbEntity
8
0
100
AcDbLine
10
-10.160475926075391
20
13.258983097807629
30
0
11
-10.160475926075391
21
13.82269644013936
31
0
0
LINE
5
218
100
AcDbEntity
8
0
100
AcDbLine
10
-9.4104759260753905
20
3.573301983888856
30
0
11
-9.4104759260753905
21
1.8568019838888563
31
0
0
LINE
5
219
100
AcDbEntity
8
0
100
AcDbLine
10
-9.4104759260753905
20
16.561311275624242
30
0
11
-9.4104759260753905
21
14.639558235522374
31
0
0
LINE
5
220
100
AcDbEntity
8
0
100
AcDbLine
10
-9.4104759260753905
20
13.821361594524861
30
0
11
-9.4104759260753905
21
13.257827974096868
31
0
0
LINE
5
221
100
AcDbEntity
8
0
100
AcDbLine
10
-9.4104759260753905
20
16.561311275624242
30
0
11
-9.4104759260753905
21
17.775604657198155
31
0
0
LINE
5
222
100
AcDbEntity
8
0
100
AcDbLine
10
-9.4104759260753905
20
18.527133735374576
30
0
11
-9.4104759260753905
21
19.501589747112341
31
0
0
LINE
5
223
100
AcDbEntity
8
0
100
AcDbLine
10
-9.4104759260753905
20
21.067837005230658
30
0
11
-9.4104759260753905
21
21.631371284166843
31
0
0
LWPOLYLINE
5
224
100
AcDbEntity
8
0
100
AcDbPolyline
90
12
70
1
43
0.0
10
1.1341466268171378
20
9.8398352574930623
10
1.1341466268171381
20
9.0898352574930623
10
4.7591466268171372
20
9.0898352574930605
10
4.7591466268171372
20
5.4648352574930614
10
5.5091466268171372
20
5.4648352574930614
10
5.5091466268171372
20
9.0898352574930605
10
9.1341466268171363
20
9.0898352574930605
10
9.1341466268171363
20
9.8398352574930605
10
5.5091466268171372
20
9.8398352574930605
10
5.5091466268171372
20
13.464835257493059
10
4.7591466268171372
20
13.464835257493059
10
4.7591466268171372
20
9.8398352574930605
0
LINE
5
225
100
AcDbEntity
8
0
100
AcDbLine
10
-12.454484417846857
20
14.203176561630601
30
0
11
-12.53626453166369
21
14.087020441653223
31
0
0
ENDSEC
0
SECTION
2
OBJECTS
0
DICTIONARY
5
C
100
AcDbDictionary
3
ACAD_GROUP
350
D
3
ACAD_MLINESTYLE
350
17
0
DICTIONARY
5
D
100
AcDbDictionary
0
DICTIONARY
5
1A
330
C
100
AcDbDictionary
0
DICTIONARY
5
17
100
AcDbDictionary
0
ENDSEC
0
EOF
